<svg width="current" height="current" viewBox="0 0 24 24" fill="none" xmlns="http://www.w3.org/2000/svg">
<g id="star">
<path id="Union" fill-rule="evenodd" clip-rule="evenodd" d="M12.8967 1.55685C12.7283 1.21587 12.3806 1 12 1C11.6194 1 11.2718 1.21587 11.1033 1.55685L8.24577 7.34043L1.8554 8.27359C1.47884 8.32857 1.16616 8.59233 1.04878 8.95399C0.931405 9.31565 1.02968 9.71253 1.3023 9.97781L5.92551 14.4765L4.83442 20.8321C4.77007 21.2069 4.92432 21.5857 5.2323 21.8092C5.54027 22.0327 5.94856 22.0622 6.28548 21.8852L12 18.8828L17.7146 21.8852C18.0515 22.0622 18.4598 22.0327 18.7678 21.8092C19.0757 21.5857 19.23 21.2069 19.1656 20.8321L18.0746 14.4765L22.6978 9.97781C22.9704 9.71253 23.0687 9.31565 22.9513 8.95399C22.8339 8.59233 22.5212 8.32857 22.1447 8.27359L15.7543 7.34043L12.8967 1.55685Z" fill="currentColor"/>
</g>
</svg>
